<svg xmlns="http://www.w3.org/2000/svg" width="768" height="128" viewBox="0 0 768 128"><rect width="768" height="128" fill="none"/><g fill="#0f172a" stroke="#22d3ee" stroke-width="2"><g transform="translate(0 0)"><circle cx="101" cy="40" r="8" fill="#22d3ee"/><rect x="55" y="15" width="20" height="20" fill="#dbeafe"/><rect x="45" y="36" width="38" height="44" fill="#1e3a8a"/></g><g transform="translate(128 -1)"><circle cx="104" cy="38" r="12" fill="#22d3ee"/><rect x="55" y="15" width="20" height="20" fill="#dbeafe"/><rect x="45" y="36" width="38" height="44" fill="#1e3a8a"/></g><g transform="translate(256 -2)"><circle cx="108" cy="36" r="16" fill="#22d3ee"/><rect x="55" y="15" width="20" height="20" fill="#dbeafe"/><rect x="45" y="36" width="38" height="44" fill="#1e3a8a"/></g><g transform="translate(384 -1)"><circle cx="104" cy="38" r="12" fill="#22d3ee"/><rect x="55" y="15" width="20" height="20" fill="#dbeafe"/><rect x="45" y="36" width="38" height="44" fill="#1e3a8a"/></g><g transform="translate(512 0)"><circle cx="101" cy="40" r="8" fill="#22d3ee"/><rect x="55" y="15" width="20" height="20" fill="#dbeafe"/><rect x="45" y="36" width="38" height="44" fill="#1e3a8a"/></g><g transform="translate(640 0)"><circle cx="96" cy="44" r="5" fill="#22d3ee"/><rect x="55" y="15" width="20" height="20" fill="#dbeafe"/><rect x="45" y="36" width="38" height="44" fill="#1e3a8a"/></g></g></svg>
